<?xml version="1.0" encoding="UTF-8" standalone="no"?>
<svg
   width="40"
   height="64"
   viewBox="0 0 40 64"
   version="1.1"
   id="svg14"
   sodipodi:docname="Liberty.svg"
   inkscape:version="1.1.1 (3bf5ae0d25, 2021-09-20)"
   xmlns:inkscape="http://www.inkscape.org/namespaces/inkscape"
   xmlns:sodipodi="http://sodipodi.sourceforge.net/DTD/sodipodi-0.dtd"
   xmlns="http://www.w3.org/2000/svg"
   xmlns:svg="http://www.w3.org/2000/svg"
   xmlns:rdf="http://www.w3.org/1999/02/22-rdf-syntax-ns#"
   xmlns:cc="http://creativecommons.org/ns#"
   xmlns:dc="http://purl.org/dc/elements/1.1/">
  <defs
     id="defs18" />
  <sodipodi:namedview
     id="namedview16"
     pagecolor="#ffffff"
     bordercolor="#666666"
     borderopacity="1.0"
     inkscape:pageshadow="2"
     inkscape:pageopacity="0.0"
     inkscape:pagecheckerboard="0"
     showgrid="false"
     inkscape:zoom="3.7638889"
     inkscape:cx="-13.01845"
     inkscape:cy="15.409594"
     inkscape:window-width="1366"
     inkscape:window-height="712"
     inkscape:window-x="0"
     inkscape:window-y="0"
     inkscape:window-maximized="1"
     inkscape:current-layer="svg14"
     height="71px" />
  <title
     id="title2">Liberty</title>
  <g
     id="⌚️-iOS-Clock-App"
     stroke="none"
     stroke-width="1"
     fill="none"
     fill-rule="evenodd"
     transform="matrix(0.83198247,0,0,0.77631984,3.3465748,4.960773)">
    <g
       id="iOS-Clock---Light"
       transform="translate(-44,-692)"
       fill="#eceff5"
       fill-rule="nonzero">
      <g
         id="New-York"
         transform="translate(20,612)">
        <g
           id="Liberty"
           transform="translate(24,80)">
          <path
             d="m 11.755,41.922143 c -0.613843,-0.04185 -1.144,0.418528 -1.199786,1.032357 l -0.09766,1.255571 c -0.04185,0.613843 0.418529,1.144 1.032357,1.199786 h 0.08371 c 0.585936,0 1.074215,-0.446428 1.116072,-1.032357 l 0.09766,-1.255571 c 0.04185,-0.613843 -0.418532,-1.157929 -1.03236,-1.199786 z"
             id="Path" />
          <path
             d="M 4.1657143,7.98 H 4.69585 L 5.1980786,25.614286 5.0446214,25.739843 C 4.7098,26.032814 4.5842429,26.507129 4.72375,26.9257 c 1.6462143,5.078143 2.9855,6.933571 6.375571,8.524286 l -0.292971,4.101571 c -0.04185,0.613843 0.418529,1.144 1.032357,1.199786 h 0.08371 c 0.585936,0 1.074215,-0.446429 1.116072,-1.032357 L 13.401207,34.8362 c 0.0279,-0.474329 -0.237164,-0.920786 -0.669643,-1.102143 C 9.7460643,32.464557 8.6299929,31.4182 7.0954214,26.939986 L 10.080921,24.3312 10.778464,23.717357 11.83875,24.37305 c 0.613843,0.376671 1.311357,0.571986 2.022857,0.571986 h 5.050214 l -5.203714,6.584857 c -0.376671,0.488278 -0.292971,1.185857 0.181364,1.5625 0.209265,0.167414 0.446429,0.237164 0.697543,0.237164 0.334822,0 0.655693,-0.139507 0.878929,-0.418528 l 4.450357,-5.636143 -0.251114,4.896785 c -0.0279,0.613843 0.446428,1.144 1.060285,1.171858 h 0.0279 0.01395 0.06976 c 0.571985,-0.01395 1.060285,-0.474329 1.088142,-1.060286 l 0.334822,-7.003357 c 2.343714,0.920785 4.045786,3.111071 4.282928,5.678 v 0.0279 l 0.558036,4.882786 c -0.0558,0.153457 -0.06975,0.320871 -0.04185,0.488278 l 1.018429,8.063572 0.404578,3.599357 -7.422142,2.218214 0.613842,-12.611428 0.06976,-1.325357 c 0.181364,-0.418529 0.08371,-0.920786 -0.265065,-1.241643 -0.209264,-0.195315 -0.474328,-0.292972 -0.739428,-0.306922 h -0.04185 c -0.460379,-0.0279 -0.864929,0.237165 -1.060286,0.627793 l -3.278428,3.487714 c -0.418529,0.446429 -0.404579,1.157929 0.0558,1.576429 0.209265,0.195314 0.488279,0.306921 0.767286,0.306921 0.292971,0 0.599886,-0.111607 0.809143,-0.348771 L 19.371941,38.923943 18.744148,51.7168 v 0.01395 0.09766 0.0279 c 0,0.04185 0.01395,0.08371 0.01395,0.125557 v 0.01395 0.0279 c 0,0.0279 0.01395,0.0558 0.0279,0.08371 v 0.01395 c 0,0.01395 0,0.01395 0.01395,0.0279 0.01395,0.0279 0.01395,0.0558 0.0279,0.08371 0,0.01395 0,0.01395 0.01395,0.0279 0,0 0,0.01395 0.01395,0.01395 0.01395,0.0279 0.0279,0.0558 0.04185,0.08371 0,0 0,0.01395 0.01395,0.01395 0.04185,0.06976 0.09766,0.139507 0.153457,0.195314 l 0.01395,0.01395 c 0.01395,0.01395 0.01395,0.01395 0.0279,0.0279 l 0.04185,0.04185 3.222643,2.748357 c -1.953143,1.409072 -5.998858,4.296857 -9.012143,6.487143 -0.502229,0.362722 -0.613843,1.060286 -0.251115,1.5625 0.223215,0.306922 0.558036,0.460379 0.906786,0.460379 0.223214,0 0.460379,-0.06976 0.655693,-0.209265 4.101571,-2.957571 10.100714,-7.268571 10.156429,-7.31 0.0279,-0.01395 0.0558,-0.04185 0.06976,-0.0558 0.01395,-0.01395 0.01395,-0.01395 0.0279,-0.0279 0.0279,-0.01395 0.04185,-0.04185 0.0558,-0.0558 0.01395,-0.01395 0.01395,-0.01395 0.0279,-0.0279 0.0279,-0.0279 0.0558,-0.06976 0.06975,-0.09766 0,-0.01395 0.01395,-0.01395 0.01395,-0.0279 0.01395,-0.0279 0.0279,-0.0558 0.0558,-0.08371 0,-0.01395 0.01395,-0.01395 0.01395,-0.0279 0.01395,-0.0279 0.0279,-0.0558 0.04185,-0.08371 0,-0.01395 0.01395,-0.0279 0.01395,-0.0279 0.01395,-0.0279 0.01395,-0.0558 0.0279,-0.08371 0,-0.01395 0,-0.0279 0.01395,-0.0279 0.01395,-0.0279 0.01395,-0.06975 0.01395,-0.111607 v -0.01395 c 0,-0.04185 0.01395,-0.08371 0.01395,-0.125557 v -0.01395 -4.059714 l 1.339285,-0.376672 0.655693,11.425714 c 0.0279,0.599886 0.530136,1.046286 1.116072,1.046286 h 0.06975 C 29.082,63.491535 29.5563,62.975349 29.514443,62.361528 L 28.83085,50.322242 30.016708,49.973471 c 0.516185,-0.153457 0.851,-0.655693 0.795214,-1.199786 l -1.367214,-12.137143 2.301928,-2.1345 2.678572,2.887857 -2.287929,2.343715 c -0.432479,0.446428 -0.418529,1.144 0.01395,1.576428 0.446428,0.432479 1.144,0.418529 1.576428,-0.01395 l 3.027357,-3.097072 c 0.418529,-0.432478 0.418529,-1.102143 0.01395,-1.534571 l -4.171286,-4.492215 c -0.195314,-0.223214 -0.474328,-0.348771 -0.781285,-0.362721 -0.292972,-0.01395 -0.585936,0.09766 -0.795215,0.292971 l -1.911285,1.771786 -0.348772,-3.069214 c -0.348771,-3.613286 -2.832,-6.640643 -6.222071,-7.728572 0.292971,-0.530135 0.446428,-1.13 0.446428,-1.771785 V 20.74666 h 2.357715 c 0.613843,0 1.116071,-0.502229 1.116071,-1.116071 0,-0.613843 -0.502228,-1.116072 -1.116071,-1.116072 h -2.357715 v -0.376671 c 0,-0.223215 -0.01395,-0.432479 -0.0558,-0.641743 l 2.580929,-2.580929 c 0.432478,-0.432478 0.432478,-1.144 0,-1.576428 -0.432479,-0.432479 -1.144,-0.432479 -1.576429,0 l -2.120571,2.120571 c -0.404579,-0.376671 -0.892857,-0.669643 -1.423,-0.837071 v -3.111072 c 0,-0.613843 -0.502229,-1.116071 -1.116072,-1.116071 -0.613843,0 -1.116071,0.502228 -1.116071,1.116071 v 3.097072 c -0.502229,0.153457 -0.962643,0.418528 -1.339286,0.767285 L 14.78235,13.338674 c -0.432479,-0.432478 -1.144,-0.432478 -1.576429,0 -0.432428,0.432479 -0.432478,1.144 0,1.576429 l 2.455358,2.455357 c -0.0558,0.251114 -0.08371,0.502229 -0.08371,0.767286 v 0.320871 c -0.0558,-0.01395 -0.09766,-0.01395 -0.153457,-0.01395 H 12.0759 c -0.613843,0 -1.102143,0.488278 -1.116071,1.102143 L 9.8576857,7.9818086 h 0.2929713 c 0.613836,0 1.116072,-0.5022286 1.116072,-1.1160715 0,-0.5022285 -0.334822,-0.9207857 -0.781286,-1.0602857 0.0279,-0.2092643 0.04185,-0.4324785 0.04185,-0.6417428 0,-1.995 -1.0742143,-3.8644286 -2.8041429,-4.8549286 -0.3487714,-0.19531429 -0.7672857,-0.19531429 -1.1160714,0 -1.7299286,1.0044286 -2.8041428,2.8599286 -2.8041428,4.8549286 0,0.2232143 0.013951,0.4324785 0.041852,0.6417428 C 3.3983614,5.9449586 3.0632205,6.3774371 3.0632205,6.8657371 3.0495536,7.49353 3.5517829,7.9818086 4.1656471,7.9818086 Z M 23.041429,53.013571 22.1625,52.260214 23.041429,52.0091 Z M 8.9785714,22.307857 7.3742143,23.702929 7.1231,14.997214 c 0.2232143,-0.0558 0.4882786,-0.125557 0.7394286,-0.181364 L 8.2392,14.718193 Z M 17.809286,21.247571 V 18.1365 c 0,-0.809143 0.655693,-1.464857 1.464857,-1.464857 0.809164,0 1.464857,0.655693 1.464857,1.464857 v 3.111071 c 0,0.809143 -0.655693,1.464858 -1.464857,1.464858 -0.809164,0 -1.464857,-0.655693 -1.464857,-1.464858 z M 12.0755,20.689536 h 3.348214 c 0.0558,0 0.111607,0 0.153457,-0.01395 v 0.571986 c 0,0.516186 0.111608,1.018429 0.306922,1.464857 h -2.036857 c -0.306922,0 -0.599886,-0.08371 -0.851,-0.237164 L 11.23845,21.38712 c -0.04185,-0.0279 -0.06975,-0.04185 -0.111607,-0.0558 l -0.139507,-1.534571 c 0.111607,0.502229 0.558035,0.892857 1.088143,0.892857 z M 8.0437143,12.486679 c -0.3348214,0.08371 -0.6696429,0.167414 -0.9765714,0.237164 L 6.9276357,7.9805571 H 7.6112286 Z M 7.1508571,2.6373929 c 0.7114929,0.6417428 1.13,1.5485714 1.13,2.5251428 0,0.1534572 -0.013951,0.3069214 -0.027901,0.4464286 H 6.0487414 C 6.0347907,5.4555071 6.02084,5.3020429 6.02084,5.1625357 c 0,-0.9765714 0.4185286,-1.8972857 1.13,-2.5251428 z"
             id="Shape" />
          <path
             d="M 38.735714,69.196429 H 5.895 V 67.606 H 35.22 c 0.613843,0 1.116071,-0.502236 1.116071,-1.116071 0,-0.613843 -0.502228,-1.116072 -1.116071,-1.116072 h -9.947143 v -4.771214 c 0,-0.613843 -0.502228,-1.116072 -1.116071,-1.116072 -0.613836,0 -1.116072,0.502229 -1.116072,1.116072 v 4.771214 H 20.962 v -1.688071 c 0,-0.613843 -0.502229,-1.116072 -1.116071,-1.116072 -0.613843,0 -1.116072,0.502229 -1.116072,1.116072 v 1.688071 h -7.575 L 11.86635,55.580286 17.795493,49.2745 c 0.418528,-0.446429 0.404578,-1.157929 -0.0558,-1.576429 -0.446429,-0.418528 -1.157929,-0.404578 -1.576429,0.0558 L 12.131479,52.0368 12.4384,47.865514 c 0.04185,-0.613843 -0.418528,-1.144 -1.032357,-1.199786 -0.613843,-0.04185 -1.144,0.418529 -1.199786,1.032357 L 8.9088257,65.360232 H 4.7793971 c -0.6138428,0 -1.1160714,0.502229 -1.1160714,1.116072 v 2.720428 H 1.2637543 c -0.61384287,0 -1.11607144,0.502229 -1.11607144,1.116072 0,0.613842 0.50222857,1.116071 1.11607144,1.116071 h 3.0970714 c 0.1255572,0.0558 0.2650643,0.08371 0.4185286,0.08371 H 35.220069 c 0.153457,0 0.292971,-0.0279 0.418528,-0.08371 h 3.097072 c 0.613842,0 1.116071,-0.502229 1.116071,-1.116071 0,-0.613843 -0.488279,-1.116072 -1.116071,-1.116072 z"
             id="path6" />
          <path
             d="M 25.273571,45.437857 V 38.574 c 0,-0.613843 -0.502228,-1.116071 -1.116071,-1.116071 -0.613836,0 -1.116071,0.502228 -1.116071,1.116071 v 6.863857 c 0,0.613843 0.502235,1.116072 1.116071,1.116072 0.613843,0 1.116071,-0.502229 1.116071,-1.116072 z"
             id="path8" />
        </g>
      </g>
    </g>
  </g>
  <metadata
     id="metadata847">
    <rdf:RDF>
      <cc:Work
         rdf:about="">
        <dc:title>Liberty</dc:title>
      </cc:Work>
    </rdf:RDF>
  </metadata>
</svg>
